<svg xmlns="http://www.w3.org/2000/svg" width="1024" height="1024" viewBox="0 0 1024 1024">
  <defs>
    <linearGradient id="bg" x1="160" y1="100" x2="850" y2="930" gradientUnits="userSpaceOnUse">
      <stop stop-color="#2B765E"/>
      <stop offset="1" stop-color="#123F33"/>
    </linearGradient>
    <linearGradient id="shine" x1="250" y1="160" x2="700" y2="830" gradientUnits="userSpaceOnUse">
      <stop stop-color="#FFFFFF" stop-opacity=".28"/>
      <stop offset=".55" stop-color="#FFFFFF" stop-opacity="0"/>
    </linearGradient>
    <filter id="shadow" x="-20%" y="-20%" width="140%" height="150%">
      <feDropShadow dx="0" dy="28" stdDeviation="32" flood-color="#08261E" flood-opacity=".3"/>
    </filter>
  </defs>
  <rect x="72" y="72" width="880" height="880" rx="220" fill="url(#bg)" filter="url(#shadow)"/>
  <path d="M220 170C380 95 650 105 834 255C900 309 930 376 948 448V292C948 170 850 72 728 72H292C170 72 72 170 72 292V445C95 325 137 218 220 170Z" fill="url(#shine)"/>
  <path d="M260 300 540 660" stroke="#F2FAF6" stroke-width="92" stroke-linecap="round"/>
  <path d="M445 245 625 478" stroke="#F2FAF6" stroke-width="92" stroke-linecap="round"/>
  <path d="M660 530 790 700" stroke="#E1B56B" stroke-width="92" stroke-linecap="round"/>
</svg>
